<svg width="200" height="200" viewBox="0 0 200 200" fill="none" xmlns="http://www.w3.org/2000/svg" id="background-icon-2"><path d="M77.75 27.918l-14.574 8.496-.048 80.099 26.922 15.691c7.239 4.22 11.702 12.005 11.702 20.413v23.266l56.507-32.12c7.291-4.145 11.795-11.922 11.795-20.369v-32.66M63.128 113.179l.048-75.432" stroke="currentColor" stroke-width="20.4782" stroke-linejoin="bevel"></path><path d="M63.128 113.179l.048-75.432" stroke="url(#paint0_linear_76_788)" stroke-opacity="0.3" stroke-width="20.4782" stroke-linejoin="bevel"></path><path d="M170.054 105.857v-16.99l-69.231-38.759-27.04 15.761c-7.175 4.182-15.998 4.23-23.184.127L32.845 55.858l-.373 62.41c-.05 8.287 4.24 15.968 11.287 20.214l21.93 13.213" stroke="currentColor" stroke-width="20.4782" stroke-linejoin="bevel"></path><path d="M104.125 52.108l65.929 36.758" stroke="url(#paint1_linear_76_788)" stroke-opacity="0.7" stroke-width="20.4782" stroke-linejoin="bevel"></path><path d="M58.686 147.516L73.29 156l66.595-38.637V83.535c0-8.34 4.437-16.048 11.648-20.237l15.451-8.976-56.527-32.035a23.404 23.404 0 00-23.295.125L64.683 35.47M139.911 117.333l-61.744 36" stroke="currentColor" stroke-width="20.4782" stroke-linejoin="bevel"></path><path d="M139.911 117.333l-61.744 36" stroke="url(#paint2_linear_76_788)" stroke-opacity="0.4" stroke-width="20.4782" stroke-linejoin="bevel"></path><path d="M63.128 116.513l26.922 15.692c7.239 4.219 11.702 12.004 11.702 20.412v17.933" stroke="currentColor" stroke-width="20.4782" stroke-linejoin="bevel"></path><defs><linearGradient id="paint0_linear_76_788" x1="63.2463" y1="40.6958" x2="62.285" y2="84.0626" gradientUnits="userSpaceOnUse"><stop stop-color="transparent" stop-opacity="0"></stop><stop offset="0.8" stop-color="#111" stop-opacity="0.6"></stop><stop offset="0.12" stop-color="#111" stop-opacity="0.6"></stop><stop offset="1" stop-color="transparent" stop-opacity="0"></stop></linearGradient><linearGradient id="paint1_linear_76_788" x1="164.344" y1="88.6663" x2="129.007" y2="66.477" gradientUnits="userSpaceOnUse"><stop stop-color="transparent" stop-opacity="0"></stop><stop offset="0.488674" stop-color="#111" stop-opacity="0.2"></stop><stop offset="1" stop-color="transparent" stop-opacity="0"></stop></linearGradient><linearGradient id="paint2_linear_76_788" x1="77.4397" y1="151.486" x2="115.2" y2="130.713" gradientUnits="userSpaceOnUse"><stop stop-color="transparent" stop-opacity="0"></stop><stop offset="0.488674" stop-color="#111" stop-opacity="0.2"></stop><stop offset="1" stop-color="transparent" stop-opacity="0"></stop></linearGradient></defs></svg>