<svg width="201" height="200" viewBox="0 0 201 200" fill="none" xmlns="http://www.w3.org/2000/svg" id="background-icon-4"><path d="M90.475 27.837L77.774 37.9C63.304 49.362 58.29 69.09 65.532 86.07l18.45 43.261" stroke="currentColor" stroke-width="20.4782"></path><path d="M90.475 27.837L77.774 37.9C63.304 49.362 58.29 69.09 65.532 86.07l18.45 43.261" stroke="url(#paint0_linear_76_813)" stroke-width="20.4782"></path><path d="M32.718 72.778l2.363 16.03c2.692 18.263 17.27 32.468 35.596 34.687l46.689 5.653" stroke="currentColor" stroke-width="20.4782"></path><path d="M32.718 72.778l2.363 16.03c2.692 18.263 17.27 32.468 35.596 34.687l46.689 5.653" stroke="url(#paint1_linear_76_813)" stroke-width="20.4782"></path><path d="M42.757 145.268l15.065 5.969c17.162 6.8 36.752 1.279 47.837-13.483l28.241-37.608" stroke="currentColor" stroke-width="20.4782"></path><path d="M42.757 145.268l15.065 5.969c17.162 6.8 36.752 1.279 47.837-13.483l28.241-37.608" stroke="url(#paint2_linear_76_813)" stroke-width="20.4782"></path><path d="M110.554 172.824l12.701-10.062c14.47-11.463 19.484-31.189 12.242-48.17l-18.449-43.261" stroke="currentColor" stroke-width="20.4782"></path><path d="M110.554 172.824l12.701-10.062c14.47-11.463 19.484-31.189 12.242-48.17l-18.449-43.261" stroke="currentColor" stroke-width="20.4782"></path><path d="M110.554 172.824l12.701-10.062c14.47-11.463 19.484-31.189 12.242-48.17l-18.449-43.261" stroke="url(#paint3_linear_76_813)" stroke-width="20.4782"></path><path d="M168.32 127.88l-2.363-16.031c-2.692-18.263-17.269-32.468-35.596-34.687l-46.69-5.653" stroke="currentColor" stroke-width="20.4782"></path><path d="M168.32 127.88l-2.363-16.031c-2.692-18.263-17.269-32.468-35.596-34.687l-46.69-5.653" stroke="url(#paint4_linear_76_813)" stroke-width="20.4782"></path><path d="M158.281 55.386l-15.064-5.97c-17.163-6.8-36.753-1.278-47.838 13.484L74.268 91.014l-.505.672" stroke="currentColor" stroke-width="20.4782"></path><path d="M158.281 55.386l-15.064-5.97c-17.163-6.8-36.753-1.278-47.838 13.484L74.268 91.014l-.505.672" stroke="url(#paint5_linear_76_813)" stroke-width="20.4782"></path><path d="M90.476 27.837L77.774 37.898c-14.47 11.463-19.483 31.19-12.242 48.17l7.256 17.013" stroke="currentColor" stroke-width="20.4782"></path><path d="M90.476 27.837L77.774 37.898c-14.47 11.463-19.483 31.19-12.242 48.17l7.256 17.013" stroke="url(#paint6_linear_76_813)" stroke-width="20.4782"></path><defs><linearGradient id="paint0_linear_76_813" x1="80.4282" y1="121.776" x2="64.1305" y2="78.3649" gradientUnits="userSpaceOnUse"><stop stop-opacity="0.2"></stop><stop offset="0.3" stop-color="transparent" stop-opacity="0"></stop></linearGradient><linearGradient id="paint1_linear_76_813" x1="109.048" y1="128.448" x2="63.3037" y2="120.857" gradientUnits="userSpaceOnUse"><stop stop-opacity="0.1"></stop><stop offset="1" stop-color="transparent" stop-opacity="0"></stop></linearGradient><linearGradient id="paint2_linear_76_813" x1="129.134" y1="107" x2="99.6877" y2="142.82" gradientUnits="userSpaceOnUse"><stop stop-opacity="0.1"></stop><stop offset="1" stop-color="transparent" stop-opacity="0"></stop></linearGradient><linearGradient id="paint3_linear_76_813" x1="120.601" y1="78.8851" x2="136.899" y2="122.296" gradientUnits="userSpaceOnUse"><stop stop-opacity="0.1"></stop><stop offset="1" stop-color="transparent" stop-opacity="0"></stop></linearGradient><linearGradient id="paint4_linear_76_813" x1="91.9905" y1="72.2093" x2="137.734" y2="79.8006" gradientUnits="userSpaceOnUse"><stop stop-opacity="0.1"></stop><stop offset="1" stop-color="transparent" stop-opacity="0"></stop></linearGradient><linearGradient id="paint5_linear_76_813" x1="71.9041" y1="93.6536" x2="101.35" y2="57.8339" gradientUnits="userSpaceOnUse"><stop stop-opacity="0.1"></stop><stop offset="1" stop-color="transparent" stop-opacity="0"></stop></linearGradient></defs></svg>