<svg width="200" height="200" viewBox="0 0 200 200" fill="none" xmlns="http://www.w3.org/2000/svg" id="background-icon-1"><path d="M65.944 26.159l5.12-8.867-9.93-.172 4.81 9.039zm82.331 47.534l4.768 9.061.352-17.928-5.12 8.867zM28.835 86.81l10.234-.307-10.234.307zM27.63 46.55l-4.81-9.04a10.24 10.24 0 00-5.425 9.346l10.235-.307zM146.362 74.7l-4.768-9.062 4.768 9.061zm-9.378 15.518h10.239-10.239zm-71.04-64.06l-5.12 8.868 82.332 47.534 5.119-8.867 5.12-8.867-82.332-47.534-5.12 8.867zM28.835 86.81l10.234-.307-1.205-40.26-10.234.306-10.235.307 1.206 40.26 10.234-.306zM27.63 46.55l4.81 9.038 38.314-20.39-4.81-9.04-4.81-9.038-38.315 20.39 4.81 9.04zm36.89 70.476l5.12-8.867-26.917-15.54-5.12 8.866-5.119 8.868 26.917 15.54 5.12-8.867zm83.755-43.333l-4.768-9.061-1.913 1.006 4.768 9.061 4.769 9.062 1.912-1.007-4.768-9.06zm-11.291 16.525h-10.239v48.948h20.478V90.218h-10.239zm9.378-15.519l-4.768-9.06a27.77 27.77 0 00-14.849 24.58h20.478a7.29 7.29 0 013.908-6.458l-4.769-9.061zM28.835 86.81l-10.235.307a27.792 27.792 0 0013.884 23.237l5.12-8.868 5.12-8.867a7.314 7.314 0 01-3.654-6.115l-10.235.307z" fill="currentColor"></path><path d="M65.944 26.159l5.12-8.867-9.93-.172 4.81 9.039zm82.331 47.534l4.768 9.061.352-17.928-5.12 8.867zM28.835 86.81l10.234-.307-10.234.307zM27.63 46.55l-4.81-9.04a10.24 10.24 0 00-5.425 9.346l10.235-.307zM146.362 74.7l-4.768-9.062 4.768 9.061zm-9.378 15.518h10.239-10.239zm-71.04-64.06l-5.12 8.868 82.332 47.534 5.119-8.867 5.12-8.867-82.332-47.534-5.12 8.867zM28.835 86.81l10.234-.307-1.205-40.26-10.234.306-10.235.307 1.206 40.26 10.234-.306zM27.63 46.55l4.81 9.038 38.314-20.39-4.81-9.04-4.81-9.038-38.315 20.39 4.81 9.04zm36.89 70.476l5.12-8.867-26.917-15.54-5.12 8.866-5.119 8.868 26.917 15.54 5.12-8.867zm83.755-43.333l-4.768-9.061-1.913 1.006 4.768 9.061 4.769 9.062 1.912-1.007-4.768-9.06zm-11.291 16.525h-10.239v48.948h20.478V90.218h-10.239zm9.378-15.519l-4.768-9.06a27.77 27.77 0 00-14.849 24.58h20.478a7.29 7.29 0 013.908-6.458l-4.769-9.061zM28.835 86.81l-10.235.307a27.792 27.792 0 0013.884 23.237l5.12-8.868 5.12-8.867a7.314 7.314 0 01-3.654-6.115l-10.235.307z" fill="url(#paint0_linear_76_779)"></path><path d="M65.944 26.159l5.12-8.867-9.93-.172 4.81 9.039zm82.331 47.534l4.768 9.061.352-17.928-5.12 8.867zM28.835 86.81l10.234-.307-10.234.307zM27.63 46.55l-4.81-9.04a10.24 10.24 0 00-5.425 9.346l10.235-.307zM146.362 74.7l-4.768-9.062 4.768 9.061zm-9.378 15.518h10.239-10.239zm-71.04-64.06l-5.12 8.868 82.332 47.534 5.119-8.867 5.12-8.867-82.332-47.534-5.12 8.867zM28.835 86.81l10.234-.307-1.205-40.26-10.234.306-10.235.307 1.206 40.26 10.234-.306zM27.63 46.55l4.81 9.038 38.314-20.39-4.81-9.04-4.81-9.038-38.315 20.39 4.81 9.04zm36.89 70.476l5.12-8.867-26.917-15.54-5.12 8.866-5.119 8.868 26.917 15.54 5.12-8.867zm83.755-43.333l-4.768-9.061-1.913 1.006 4.768 9.061 4.769 9.062 1.912-1.007-4.768-9.06zm-11.291 16.525h-10.239v48.948h20.478V90.218h-10.239zm9.378-15.519l-4.768-9.06a27.77 27.77 0 00-14.849 24.58h20.478a7.29 7.29 0 013.908-6.458l-4.769-9.061zM28.835 86.81l-10.235.307a27.792 27.792 0 0013.884 23.237l5.12-8.868 5.12-8.867a7.314 7.314 0 01-3.654-6.115l-10.235.307z" fill="url(#paint1_linear_76_779)"></path><path d="M134.276 26.159l-5.12-8.867 9.93-.172-4.81 9.039zM51.944 73.693l-4.768 9.061-.351-17.928 5.12 8.867zM171.386 86.81l-10.235-.307 10.235.307zm1.205-40.26l4.81-9.04a10.237 10.237 0 015.424 9.346l-10.234-.307zM53.857 74.7l-4.768 9.06 4.768-9.06zm9.379 15.533h10.24-10.24zm71.04-64.074l5.12 8.867L57.064 82.56l-5.12-8.867-5.119-8.867 82.331-47.534 5.12 8.867zm37.109 60.65l-10.235-.306 1.205-40.26 10.235.306 10.234.307-1.205 40.26-10.234-.306zm1.205-40.26l-4.81 9.04-38.314-20.391 4.81-9.04 4.81-9.038L177.4 37.51l-4.81 9.04zm-36.891 70.477l-5.119-8.867 26.917-15.54 5.119 8.866 5.12 8.868-26.917 15.54-5.12-8.867zM51.944 73.693l4.769-9.061 1.912 1.006-4.768 9.061-4.768 9.062-1.913-1.007 4.768-9.061zm11.292 16.54h10.24v42.266h-20.48V90.233h10.24zm-9.379-15.534l4.768-9.06a27.792 27.792 0 0114.85 24.594H52.996a7.314 7.314 0 00-3.907-6.472l4.768-9.061zm117.528 12.11l10.234.307a27.79 27.79 0 01-13.883 23.237l-5.12-8.868-5.119-8.867a7.314 7.314 0 003.653-6.115l10.235.307z" fill="currentColor"></path><path d="M134.277 26.16L51.945 73.694" stroke="currentColor" stroke-width="20.4782" stroke-linejoin="bevel"></path><path d="M63.096 149.156H52.857l4.817 8.685 5.422-8.685zm65.593 5.027l5.421 8.686-5.421-8.686zm-28.777 17.959l-5.423 8.685a10.24 10.24 0 0010.844.001l-5.421-8.686zm37.037-32.85h10.239-10.239zm-73.853 9.864h10.24v-45.068H52.856v45.068h10.24zm65.593 5.027l-5.42-8.687-28.778 17.959 5.421 8.687 5.421 8.686 28.777-17.959-5.421-8.686zm-28.777 17.959l5.423-8.686-36.816-22.985-5.423 8.685-5.422 8.685 36.815 22.986 5.423-8.685zm37.037-34.476H126.71v1.626h20.478v-1.626h-10.239zm-8.26 16.517l5.421 8.686a27.791 27.791 0 0013.078-23.577H126.71a7.314 7.314 0 01-3.441 6.204l5.42 8.687z" fill="currentColor"></path><path d="M160.753 102.559l-46.148 26.597a29.253 29.253 0 01-29.23-.008l-46.099-26.602" stroke="currentColor" stroke-width="20.4782" stroke-linejoin="bevel"></path><path d="M160.753 102.559l-46.148 26.597a29.253 29.253 0 01-29.23-.008l-46.099-26.602" stroke="url(#paint2_linear_76_779)" stroke-width="20.4782" stroke-linejoin="bevel"></path><path d="M63.236 92.635v54.531" stroke="currentColor" stroke-width="20.4782" stroke-linejoin="bevel"></path><defs><linearGradient id="paint0_linear_76_779" x1="75.5023" y1="39.1659" x2="112.636" y2="60.2174" gradientUnits="userSpaceOnUse"><stop stop-color="transparent" stop-opacity="0"></stop><stop offset="0.449878" stop-color="#111" stop-opacity="0.2"></stop><stop offset="0.688984" stop-color="#111" stop-opacity="0.2"></stop><stop offset="1" stop-color="transparent" stop-opacity="0"></stop></linearGradient><linearGradient id="paint1_linear_76_779" x1="123.863" y1="90.3266" x2="135.826" y2="137.332" gradientUnits="userSpaceOnUse"><stop stop-color="transparent" stop-opacity="0"></stop><stop offset="0.471697" stop-color="#111" stop-opacity="0.2"></stop><stop offset="0.733346" stop-color="#111" stop-opacity="0.2"></stop><stop offset="1" stop-color="transparent" stop-opacity="0"></stop></linearGradient><linearGradient id="paint2_linear_76_779" x1="50.116" y1="104.666" x2="87.745" y2="123.95" gradientUnits="userSpaceOnUse"><stop stop-color="transparent" stop-opacity="0"></stop><stop offset="0.3" stop-color="#111" stop-opacity="0.2"></stop><stop offset="1" stop-color="transparent" stop-opacity="0"></stop></linearGradient></defs></svg>