<svg width="200" height="200" viewBox="0 0 200 200" fill="none" xmlns="http://www.w3.org/2000/svg" id="background-icon-0"><path d="M28.667 45.717V71.98c0 12.926 10.478 23.404 23.403 23.404h95.86c12.925 0 23.403-10.478 23.403-23.404V45.717" stroke="url(#paint0_linear_76_765)" stroke-opacity="0.5" stroke-width="20.4782" stroke-linejoin="bevel"></path><path d="M171.333 45.717V71.98c0 12.926-10.478 23.404-23.403 23.404H82.167" stroke="currentColor" stroke-width="20.4782" stroke-linejoin="bevel"></path><path d="M171.333 45.717V71.98c0 12.926-10.478 23.404-23.403 23.404H82.167" stroke="url(#paint1_linear_76_765)" stroke-opacity="0.5" stroke-width="20.4782" stroke-linejoin="bevel"></path><path d="M114.333 57.383v-14.61c0-7.947-6.417-14.39-14.333-14.39s-14.333 6.443-14.333 14.39v14.61" stroke="currentColor" stroke-width="20.4782"></path><path d="M114.333 57.383v-14.61c0-7.947-6.417-14.39-14.333-14.39s-14.333 6.443-14.333 14.39v14.61" stroke="url(#paint2_linear_76_765)" stroke-opacity="0.6" stroke-width="20.4782"></path><path d="M55.333 173.05l17.26-10.059a26.328 26.328 0 0013.074-22.748V62.717" stroke="currentColor" stroke-width="20.4782" stroke-linejoin="bevel"></path><path d="M55.333 173.05l17.26-10.059a26.328 26.328 0 0013.074-22.748V62.717" stroke="url(#paint3_linear_76_765)" stroke-opacity="0.6" stroke-width="20.4782" stroke-linejoin="bevel"></path><path d="M144.667 173.05l-17.486-10.079A26.328 26.328 0 01114 140.16V62.716" stroke="currentColor" stroke-width="20.4782" stroke-linejoin="bevel"></path><path d="M144.667 173.05l-17.486-10.079A26.328 26.328 0 01114 140.16V62.716" stroke="url(#paint4_linear_76_765)" stroke-opacity="0.6" stroke-width="20.4782" stroke-linejoin="bevel"></path><path d="M164.667 154.124l-19.456-13.404a5.851 5.851 0 01-2.531-4.819V57.457H57.32v78.444a5.852 5.852 0 01-2.531 4.819l-19.456 13.404" stroke="currentColor" stroke-width="20.4782" stroke-linejoin="bevel"></path><path d="M35.333 154.049l19.456-13.404a5.85 5.85 0 002.531-4.818V57.383H100" stroke="currentColor" stroke-width="20.4782" stroke-linejoin="bevel"></path><path d="M35.333 154.049l19.456-13.404a5.85 5.85 0 002.531-4.818V57.383H100" stroke="url(#paint5_linear_76_765)" stroke-opacity="0.6" stroke-width="20.4782" stroke-linejoin="bevel"></path><path d="M28.667 45.717V71.98c0 12.926 10.478 23.404 23.403 23.404h21.18" stroke="currentColor" stroke-width="20.4782" stroke-linejoin="bevel"></path><path d="M100 95.384h35.667" stroke="currentColor" stroke-width="20.4782" stroke-linejoin="bevel"></path><path d="M100 95.384h35.667" stroke="url(#paint7_linear_76_765)" stroke-opacity="0.5" stroke-width="20.4782" stroke-linejoin="bevel"></path><path d="M171.333 45.717V71.98c0 12.925-10.478 23.403-23.403 23.403H97.167" stroke="currentColor" stroke-width="20.4782" stroke-linejoin="bevel"></path><path d="M171.333 45.717V71.98c0 12.925-10.478 23.403-23.403 23.403H97.167" stroke="url(#paint8_linear_76_765)" stroke-opacity="0.6" stroke-width="20.4782" stroke-linejoin="bevel"></path><path d="M171.333 45.717V71.98c0 12.925-10.478 23.403-23.403 23.403H97.167" stroke="url(#paint9_linear_76_765)" stroke-width="20.4782" stroke-linejoin="bevel"></path><path d="M142.68 138.901V57.383" stroke="currentColor" stroke-width="20.4782" stroke-linejoin="bevel"></path><defs><linearGradient id="paint0_linear_76_765" x1="132.64" y1="117.259" x2="63.6736" y2="115.015" gradientUnits="userSpaceOnUse"><stop stop-color="transparent"></stop><stop offset="1" stop-color="#111" stop-opacity="0.2"></stop><stop offset="1" stop-color="transparent"></stop></linearGradient><linearGradient id="paint1_linear_76_765" x1="132.64" y1="117.259" x2="63.6736" y2="115.015" gradientUnits="userSpaceOnUse"><stop stop-color="transparent"></stop><stop offset="0.50409" stop-color="#111" stop-opacity="0.2"></stop><stop offset="1" stop-color="transparent"></stop></linearGradient><linearGradient id="paint2_linear_76_765" x1="101.177" y1="35.5783" x2="101.177" y2="59.7813" gradientUnits="userSpaceOnUse"><stop stop-opacity="0"></stop><stop offset="0.50409" stop-color="#111" stop-opacity="0.2"></stop><stop offset="1"></stop></linearGradient><linearGradient id="paint3_linear_76_765" x1="85.6666" y1="79.667" x2="85.6666" y2="56.3337" gradientUnits="userSpaceOnUse"><stop stop-opacity="0"></stop><stop offset="0.50409" stop-color="#111" stop-opacity="0.2"></stop><stop offset="1"></stop></linearGradient><linearGradient id="paint4_linear_76_765" x1="114" y1="121" x2="114" y2="55.5003" gradientUnits="userSpaceOnUse"><stop stop-opacity="0"></stop><stop offset="0.294684" stop-opacity="0.2"></stop><stop offset="0.51178" stop-opacity="0.2" stop-color="#111"></stop><stop offset="0.78817" stop-opacity="0.05"></stop><stop offset="1"></stop></linearGradient><linearGradient id="paint5_linear_76_765" x1="60.3333" y1="118" x2="60.3333" y2="76" gradientUnits="userSpaceOnUse"><stop stop-opacity="0"></stop><stop offset="0.50409" stop-color="#111" stop-opacity="0.2"></stop><stop offset="1" stop-opacity="0"></stop></linearGradient><linearGradient id="paint6_linear_76_765" x1="132.64" y1="117.259" x2="63.6736" y2="115.016" gradientUnits="userSpaceOnUse"><stop stop-color="transparent"></stop><stop offset="0.50409" stop-color="#111" stop-opacity="0.2"></stop><stop offset="1" stop-color="transparent"></stop></linearGradient><linearGradient id="paint7_linear_76_765" x1="132.64" y1="161.009" x2="63.6088" y2="160.26" gradientUnits="userSpaceOnUse"><stop stop-color="transparent"></stop><stop offset="0.50409" stop-color="#111" stop-opacity="0.2"></stop><stop offset="1" stop-color="transparent"></stop></linearGradient><linearGradient id="paint8_linear_76_765" x1="103.833" y1="95.3343" x2="91.6666" y2="95.3343" gradientUnits="userSpaceOnUse"><stop stop-color="transparent"></stop><stop offset="0.4" stop-color="#111" stop-opacity="0.2"></stop><stop offset="1" stop-color="transparent"></stop></linearGradient><linearGradient id="paint9_linear_76_765" x1="124" y1="95.3343" x2="157.667" y2="95.3343" gradientUnits="userSpaceOnUse"><stop stop-opacity="0"></stop><stop offset="0.519623" stop-opacity="0.2"></stop><stop offset="1" stop-opacity="0"></stop></linearGradient></defs></svg>