<svg id="logo-icon-0" width="200" height="200" viewBox="0 0 200 200" fill="none" xmlns="http://www.w3.org/2000/svg"><mask id="a-logo-icon-0" maskUnits="userSpaceOnUse" x="33" y="22" width="132" height="153" style="mask-type: alpha;"><path d="M164.243 122.594V22.241h-56.886v61.591H33.362v38.762a34.218 34.218 0 0019.981 31.116l45.46 20.798 45.458-20.798a34.218 34.218 0 0019.982-31.116z" fill="currentColor"></path></mask><g mask="url(#a-logo-icon-0)" stroke="currentColor" stroke-width="17.1086"><path d="M184.601 31.671l-158.765-.02M184.601 65.909l-158.765-.02M184.601 100.146l-158.765-.02M184.601 134.382l-158.765-.02M184.601 168.619L25.836 168.6"></path></g><path d="M66.763 23.057v-.001c3.366.057 7.557.38 11.443 1.5l.73.222c3.653 1.164 7.308 3.188 9.47 6.779l.22.377c2.234 3.936 3.28 9.317 3.759 14.176l.105 1.168c.207 2.52.274 4.972.261 7.139.31-.034.628-.054.955-.054 1.87 0 3.358.874 4.33 2.161l.16.224c.777 1.133 1.133 2.459 1.277 3.64l.046.472c.177 2.225-.26 4.745-1.224 6.674l-.215.404c-1.12 1.983-2.95 3.56-4.852 4.574l-.38.195c-1.473.724-3.286 1.258-5.081 1.146-3.81 3.239-11.81 8.22-21.07 8.312l.001.001-.035.001h-.28l-.038-.001v-.001c-9.26-.093-17.261-5.074-21.07-8.313-1.678.105-3.373-.355-4.79-1.007l-.29-.138c-1.908-.938-3.787-2.45-4.998-4.378l-.233-.39c-1.188-2.103-1.696-5.062-1.393-7.55l.07-.48c.19-1.133.589-2.353 1.367-3.385l.188-.236a5.294 5.294 0 014.14-1.925c.328 0 .646.02.956.054-.016-2.5.079-5.38.367-8.306l.1-.947c.537-4.76 1.642-9.89 3.879-13.607l.221-.354c2.335-3.603 6.211-5.56 9.978-6.646l.732-.201c3.675-.96 7.556-1.246 10.711-1.3v0c.064-.003.128-.006.192-.005h.099l.192.006zm-.235 3.246h-.012l-.055-.002-.019.003a61.95 61.95 0 00-1.085.026l-1.126.048c-3.12.164-6.57.61-9.624 1.658-2.96 1.016-5.504 2.583-7.034 4.962l-.145.233c-1.677 2.786-2.686 6.737-3.253 10.852-.566 4.105-.687 8.33-.61 11.627l.027.913c.032.886.077 1.688.13 2.38a.428.428 0 01-.852.095.354.354 0 00-.021-.045.936.936 0 00-.105-.147 2.474 2.474 0 00-.443-.393 4.813 4.813 0 00-1.37-.66l-.245-.069a5.44 5.44 0 00-1.35-.17c-.76 0-1.318.323-1.728.866-.421.559-.691 1.363-.805 2.301-.23 1.882.188 4.13.996 5.56.807 1.43 2.258 2.675 3.835 3.45 1.588.78 3.212 1.042 4.374.64l.057-.016a.428.428 0 01.381.113c2.62 2.549 9.59 7.445 17.808 8.27l.54.048a23.47 23.47 0 001.645.07l.01.001h.072l.002-.001.032.001h.04l.01-.001a23.671 23.671 0 002.185-.118l.767-.09c7.883-1.04 14.503-5.711 17.04-8.18l.047-.039a.427.427 0 01.391-.058c1.162.402 2.787.14 4.375-.64 1.577-.775 3.027-2.02 3.834-3.45l.148-.276c.71-1.434 1.063-3.52.848-5.284-.114-.938-.384-1.742-.805-2.301-.41-.543-.968-.867-1.729-.867-.36 0-.706.037-1.03.1l-.319.071a4.92 4.92 0 00-1.615.729 2.47 2.47 0 00-.443.393.938.938 0 00-.105.147.362.362 0 00-.021.045l-.005.014a.429.429 0 01-.848-.108c.072-.924.13-2.041.159-3.294l.018-1.278c.02-3.074-.133-6.757-.628-10.349-.532-3.858-1.453-7.572-2.947-10.316l-.307-.536c-1.51-2.51-4.123-4.146-7.178-5.195-2.672-.917-5.648-1.373-8.44-1.583l-1.186-.075c-.76-.04-1.5-.063-2.21-.074l-.019-.003-.054.002zm-13.43 18.83c.633 0 1.101.402 1.431.941.329.537.57 1.28.748 2.146.36 1.739.498 4.117.498 6.712 0 2.595-.138 4.973-.498 6.712-.179.867-.42 1.609-.748 2.145-.33.539-.798.942-1.431.942-.634 0-1.102-.403-1.432-.942-.328-.536-.569-1.279-.748-2.145-.36-1.739-.498-4.117-.498-6.712 0-2.596.139-4.973.498-6.712.179-.866.42-1.61.748-2.146.33-.539.798-.94 1.432-.94zm27.095 0c.634 0 1.102.402 1.432.941.329.537.57 1.28.748 2.146.36 1.739.498 4.117.498 6.712 0 2.595-.138 4.973-.498 6.712-.179.867-.42 1.609-.748 2.145-.33.539-.798.942-1.432.942-.633 0-1.101-.403-1.431-.942-.329-.536-.57-1.279-.748-2.145-.36-1.739-.498-4.117-.498-6.712 0-2.596.138-4.973.498-6.712.179-.866.42-1.61.748-2.146.33-.539.798-.94 1.431-.94z" fill="currentColor" stroke="currentColor" stroke-width="0.855432" stroke-linejoin="round"></path></svg>