<svg width="200" height="200" viewBox="0 0 200 200" fill="none" xmlns="http://www.w3.org/2000/svg" id="logo-icon-5"><path d="M121.936 48.191l1.888 1.248 1.887-1.248 20.568-13.6v102.58l-48.333 40.567-48.33-40.567V34.593L70.182 48.19l1.887 1.248 1.887-1.248 23.99-15.86 23.989 15.86z" stroke="currentColor" stroke-width="6.84346"></path><path d="M161.677 63.302l-.001 79.718-31.874 27.292M35.074 63.302l-.001 79.718L66.5 170.312" stroke="currentColor" stroke-width="2.5663"></path><path d="M149.7 138.766H46.193V28.229L72.07 45.337l25.877-17.109 25.877 17.109L149.7 28.228v110.538zm-49.672-81.888h-.091a3.56 3.56 0 00-.24.006v-.001c-3.954.068-8.816.427-13.419 1.63l-.916.252c-4.719 1.362-9.571 3.812-12.493 8.323l-.277.443c-2.802 4.656-4.186 11.083-4.859 17.05l-.125 1.187a101.29 101.29 0 00-.46 10.437c-.395-.045-.802-.07-1.22-.07-2.189 0-3.96.96-5.171 2.405l-.236.295c-.972 1.289-1.471 2.815-1.71 4.233l-.086.601c-.38 3.116.257 6.82 1.743 9.451l.29.489c1.516 2.412 3.868 4.306 6.257 5.481l.362.173c1.776.818 3.901 1.393 6.004 1.259 4.77 4.06 14.801 10.311 26.409 10.424l.008-.001.03.001.064.001h.267l-.001-.001h.02l-.001-.001h.033l.001.001c11.607-.113 21.638-6.364 26.408-10.424 2.248.143 4.522-.525 6.367-1.432l.477-.244c2.38-1.27 4.67-3.246 6.07-5.726l.269-.506c1.206-2.414 1.754-5.57 1.533-8.354l-.06-.591c-.18-1.48-.624-3.139-1.594-4.555l-.202-.279c-1.212-1.608-3.072-2.7-5.408-2.7-.417 0-.824.025-1.219.07.017-2.723-.068-5.806-.328-8.974l-.131-1.463c-.601-6.092-1.911-12.836-4.708-17.766l-.276-.47c-2.705-4.496-7.28-7.032-11.855-8.49l-.915-.277c-4.867-1.405-10.118-1.81-14.335-1.882h-.001l-.24-.005h-.035zm.124 73.556l-.044.001h-.019l-.035-.001h.098zm.639-.013c-.195.005-.39.01-.585.012l-.038.001h-.001l.038-.001c.196-.002.391-.007.586-.012zm-.996.012zm1.556-.033zm-2.824-.007zm3.417-.025c-.118.008-.237.014-.356.021.119-.007.238-.013.356-.021zm.522-.037l-.294.022.294-.022zm-4.82.007zm5.458-.064zm-6.31-.01c-.07-.007-.14-.012-.21-.02l-.526-.059c.245.029.49.054.736.079zm6.857-.047c-.117.013-.235.027-.353.039.118-.012.236-.026.353-.039zm.675-.083zm.139-.018l-.048.006c.19-.026.379-.052.567-.081l-.519.075zm-10.99-.345l1.024.187c-.344-.058-.685-.12-1.024-.187l-1.011-.213c.335.075.672.147 1.011.213zm15.057-.453c-.659.168-1.328.32-2.007.453l-1.024.187a36.927 36.927 0 002.034-.4l.997-.24zm-8.431-68.409c.888.014 1.817.044 2.771.094l.737.042c3.713.236 7.741.805 11.331 2.038 3.833 1.316 7.113 3.37 9.01 6.523l.195.333c1.988 3.474 3.197 8.283 3.886 13.282.621 4.505.814 9.123.788 12.977l-.023 1.603a79.142 79.142 0 01-.198 4.131.512.512 0 001.017.13l.035-.083c.025-.045.067-.108.134-.187a3.16 3.16 0 01.56-.497c.494-.353 1.194-.702 2.032-.917l.399-.089a6.824 6.824 0 011.296-.125c.962 0 1.668.409 2.185 1.095.532.705.871 1.718 1.014 2.896.27 2.216-.173 4.836-1.066 6.637l-.185.35c-1.014 1.796-2.836 3.359-4.815 4.333-1.993.98-4.037 1.31-5.501.802a.514.514 0 00-.471.072l-.054.046c-3.235 3.147-11.754 9.148-21.851 10.322l-.482.052c-.903.09-1.817.141-2.741.148l-.008.001h-.192l-.008-.001a29.282 29.282 0 01-2.061-.088l-.68-.06-.481-.052c-10.097-1.173-18.616-7.175-21.85-10.322a.511.511 0 00-.457-.136l-.07.018c-1.464.508-3.507.177-5.5-.802-1.98-.974-3.8-2.537-4.816-4.333-1.015-1.799-1.538-4.623-1.25-6.987.143-1.178.481-2.191 1.013-2.896.517-.686 1.223-1.095 2.185-1.095.604 0 1.176.081 1.696.214l.308.087a6.053 6.053 0 011.724.83c.247.177.434.349.56.497.133.158.165.252.169.27l.027.097a.513.513 0 00.988-.127l.002-.1a72.791 72.791 0 01-.165-2.986l-.033-1.145c-.096-4.136.055-9.432.765-14.58.71-5.16 1.976-10.118 4.08-13.615l.182-.292c1.922-2.99 5.115-4.956 8.828-6.231 3.83-1.315 8.157-1.874 12.069-2.08l1.41-.06c.462-.016.917-.027 1.361-.034.007 0 .013-.002.02-.003l.073.002h.015l.072-.002.021.003zm19.875 60.13zm.808-.527zm-50.515-.785a12.333 12.333 0 00.404.087l-.404-.087zm62.491-1.098l-.336.16a17.228 17.228 0 00.336-.16zm-8.014-1.14l-.165.147.165-.147zm-60.643-.889a16.214 16.214 0 00.425.34l-.425-.34zm10.046.258c-.047.013-.097.021-.145.033.052-.012.104-.022.155-.036l-.01.003zm-10.866-.986l.404.371a13.698 13.698 0 01-.405-.371l-.39-.388c.128.132.259.261.391.388zm-1.124-1.205l.358.416a13.285 13.285 0 01-.359-.416l-.34-.43c.11.146.224.289.341.43zm76.443-1.021l-.131.192.131-.192zm-77.688-.778c.09.159.183.315.28.469l.301.457c-.208-.3-.402-.609-.581-.926zm77.893.469c-.028.045-.06.087-.088.132.047-.073.094-.146.139-.22l-.051.088zm.765-1.441c-.15.337-.311.663-.485.972l-.107.178c.036-.06.072-.119.106-.179.174-.309.336-.634.486-.971zm-76.037-.502l.086.144c-.029-.048-.06-.096-.087-.144-.038-.068-.073-.138-.11-.208.037.07.073.14.111.208zm-.164-.308zm-.163-.342l-.052-.11-.026-.063c.025.059.052.116.078.173zm-.925-3.275c.094.647.233 1.282.41 1.883l.14.443a12.967 12.967 0 01-.472-1.844l-.078-.482zm20.893-22.905c-.783 0-1.364.495-1.776 1.167-.41.67-.71 1.598-.934 2.683-.45 2.178-.623 5.157-.623 8.41 0 3.254.173 6.233.623 8.411.224 1.085.525 2.014.934 2.683.412.672.993 1.168 1.776 1.168.782 0 1.364-.496 1.775-1.168.41-.669.71-1.598.935-2.683.45-2.178.623-5.157.623-8.41 0-3.254-.173-6.233-.623-8.41-.224-1.086-.525-2.015-.935-2.684-.411-.671-.993-1.167-1.775-1.167zm33.96 0c-.783 0-1.364.495-1.776 1.167-.409.67-.71 1.598-.934 2.683-.45 2.178-.623 5.157-.623 8.41 0 3.254.173 6.233.623 8.411.224 1.085.525 2.014.934 2.683.412.672.993 1.168 1.776 1.168.782 0 1.364-.496 1.775-1.168.41-.669.711-1.598.935-2.683.45-2.178.623-5.157.623-8.41 0-3.254-.173-6.233-.623-8.41-.224-1.086-.525-2.015-.935-2.684-.411-.671-.993-1.167-1.775-1.167zM83.172 108.57l-.095-.002c-.007 0-.014-.003-.02-.004.038.004.076.006.115.006zm33.96 0l-.095-.002c-.007 0-.014-.003-.02-.004.038.004.076.006.115.006zm-54.986-3.536c-.011.32-.01.643.002.969l.028.488a13.472 13.472 0 01-.038-.975l.008-.482zm-3.004-.151l.002-.033.033-.547c-.016.191-.027.385-.035.58zm3.079-.791l-.047.467a10.7 10.7 0 01.046-.467l.066-.455a9.724 9.724 0 00-.065.455zm78.546-.362l.055.567c-.015-.191-.034-.38-.056-.567a14.265 14.265 0 00.001 0zm-69.875-1.759l-.002-.005c-.011-.143-.02-.29-.03-.44.01.152.02.3.032.445zm68.82-1.808zm-.18-.323zm-.198-.32zm-78.772.16l.016-.025.165-.25a7.308 7.308 0 00-.18.276zm5.609-.027a7.167 7.167 0 010 .001l-.242-.005.242.004zm72.898-.51l.189.261.027.042a6.866 6.866 0 00-.216-.303zm-68.377-1.332l.016.547-.017-.546a97.392 97.392 0 01.001 0zm15.304-.988l-.009 1.201a84.855 84.855 0 000-2.254c.005.347.009.698.009 1.053zm33.96 0l-.009 1.201a79.24 79.24 0 000-2.254c.004.347.009.698.009 1.053zm-39.459-4.572a60.798 60.798 0 000-.001v.001zm33.96 0a61.409 61.409 0 000-.001v.001zm-33.49-3.734c-.027.132-.053.269-.078.408l-.074.426c.047-.29.098-.57.153-.835zm33.961 0a13.91 13.91 0 00-.079.408l-.074.426c.047-.29.098-.57.153-.835zm-47.044.143l.008-.124.095-1.264c-.038.465-.072.928-.103 1.388zm14.768-3.467a1.395 1.395 0 00-.038.017l.038-.017zm33.96 0a1.448 1.448 0 00-.038.017l.038-.017zm-33.274-.107zm33.96 0zm-34.122-.01l.098.003c.011 0 .022.003.033.004a1.249 1.249 0 00-.132-.008zm33.96 0l.098.003c.011 0 .022.003.033.004a1.27 1.27 0 00-.132-.008h.001zm9.029-11.988l.077.215a35.703 35.703 0 00-.2-.528c.04.104.084.208.123.313zm-1.191-2.702l.184.365a26.316 26.316 0 00-.184-.364l-.19-.358c.064.118.127.237.19.357zm3.16-.38zm-56.44.378zm3.53-.366l.076-.137-.076.137zm52.572-.712zm-55.315-.542zm54.959-.14zm-.201-.368c.018.03.034.063.051.094a11.792 11.792 0 00-.098-.173l.047.079zm-8.053-3.83zm-.465-.261zm-.8-.414c.189.092.376.188.561.286l-.561-.286zm-2.695-1.111zm-.854-.285c.223.07.444.143.663.218l-.663-.218zm-3.802-.959l.098.02a45.54 45.54 0 00-.341-.066c.081.015.162.03.243.047zm-1.333-.24zM108 60.97zm-1.16-.149c.233.027.466.058.7.088-.234-.03-.467-.06-.7-.088zm-9.737-.33l-.625.036.624-.036 1.42-.06c-.466.015-.94.035-1.42.06zm4.375-.06l1.42.06c-.48-.025-.955-.045-1.421-.06l-1.369-.033c.448.006.905.017 1.37.033zm12.169-1.407l.849.235a36.46 36.46 0 00-.887-.244l.038.01zm7.851 61.004c-.189.132-.382.263-.579.396l.579-.396zM71.975 69.772zm.534-1.057l.253-.458c-.095.167-.19.336-.28.508.008-.017.018-.034.027-.05zM102.138 22.07h-7.527v-7.528h7.527v7.528zm15.056 0h-7.528v-7.528h7.528v7.528zm-30.112 0h-7.527v-7.528h7.527v7.527z" fill="currentColor"></path></svg>