<svg width="200" height="200" viewBox="0 0 200 200" fill="none" xmlns="http://www.w3.org/2000/svg" id="logo-icon-7"><path d="M163.387 18.82c-11.324 62.218-4.718 110.178 0 126.381l-64.585 33.584-64.585-33.584c4.719-16.203 11.325-64.163 0-126.382h129.17zM48.221 137.738c-.072.384-.142.762-.215 1.134l50.796 26.413 50.795-26.413c-3.263-16.63-5.956-44.416-3.457-79.163l-97.919 78.029zm28.24-61.008H57.313V95.88h19.147V76.732h18.235V58.496H76.46v18.235zm18.236-18.234h19.147V39.35H94.697v19.147z" fill="currentColor"></path><mask id="a-logo-icon-7" maskUnits="userSpaceOnUse" x="60" y="75" width="80" height="72" style="mask-type: alpha;"><path d="M100.061 76.094l.247.006h-.001c4.032.07 9.045.455 13.69 1.789l.875.263c4.372 1.386 8.736 3.794 11.315 8.057l.263.448c2.672 4.684 3.926 11.096 4.501 16.896l.126 1.392c.25 3.043.331 6.002.312 8.611.399-.048.81-.075 1.233-.075 2.213 0 3.975 1.029 5.125 2.547l.191.265c.922 1.337 1.346 2.906 1.518 4.311l.056.56c.211 2.643-.312 5.637-1.462 7.925l-.256.479c-1.334 2.35-3.516 4.224-5.786 5.428l-.455.233c-1.768.864-3.943 1.497-6.089 1.355-4.552 3.86-14.15 9.817-25.256 9.928l.001.001-.041.001h-.017l-.047.001h-.208l-.06-.001-.046-.001v-.001c-11.106-.111-20.704-6.068-25.255-9.928-2.008.132-4.041-.413-5.743-1.192l-.345-.163c-2.279-1.115-4.52-2.912-5.964-5.198l-.277-.463c-1.416-2.493-2.023-6.008-1.662-8.964l.083-.57c.227-1.345.702-2.788 1.625-4.006l.224-.279c1.15-1.363 2.827-2.268 4.902-2.268.422 0 .834.027 1.232.075-.022-3.005.09-6.476.44-10.003l.12-1.129c.643-5.68 1.967-11.792 4.643-16.215l.264-.42c2.785-4.278 7.414-6.605 11.925-7.9l.877-.24c4.392-1.142 9.033-1.483 12.813-1.548V76.1c.082-.005.164-.007.247-.006h.122zm-.055 3.717h-.012l-.072-.002-.02.002c-.425.007-.86.017-1.303.032l-1.352.057c-3.748.196-7.898.73-11.573 1.986-3.562 1.217-6.635 3.096-8.485 5.959l-.175.28c-2.02 3.34-3.235 8.071-3.916 12.988-.68 4.908-.823 9.955-.731 13.896l.032 1.092c.038 1.058.093 2.017.157 2.845l-.002.084a.428.428 0 01-.846.026c-.005-.033-.043-.131-.174-.285a3.013 3.013 0 00-.548-.485 5.913 5.913 0 00-1.67-.8l-.297-.083a6.663 6.663 0 00-1.64-.206c-.944 0-1.638.401-2.143 1.068-.518.683-.846 1.659-.984 2.787-.276 2.262.227 4.963 1.206 6.689.98 1.724 2.733 3.222 4.637 4.154 1.915.936 3.891 1.258 5.317.767l.058-.016a.429.429 0 01.38.113c3.152 3.051 11.532 8.91 21.42 9.897l.651.058c.654.05 1.314.08 1.979.085h.204a28.488 28.488 0 002.626-.143l.923-.106c9.484-1.244 17.444-6.835 20.498-9.791l.046-.038a.426.426 0 01.391-.059c1.425.491 3.401.169 5.317-.767 1.904-.932 3.658-2.43 4.636-4.154l.179-.334c.862-1.727 1.287-4.235 1.027-6.355-.138-1.128-.465-2.104-.983-2.787-.505-.667-1.199-1.068-2.142-1.068-.439 0-.859.043-1.254.119l-.386.087c-.81.207-1.488.542-1.968.883-.24.171-.423.338-.548.485-.066.077-.108.14-.135.188l-.04.097a.427.427 0 01-.847-.11c.086-1.105.154-2.44.189-3.937l.024-1.528c.024-3.673-.16-8.074-.755-12.368-.66-4.763-1.82-9.353-3.729-12.672l-.187-.316c-1.828-3.02-4.983-4.983-8.66-6.24-3.446-1.176-7.309-1.719-10.867-1.944l-.707-.04a69.298 69.298 0 00-1.351-.058l-1.304-.032-.02-.002-.071.002zm-18.382 22.652c.717 0 1.255.451 1.644 1.082.387.628.674 1.504.888 2.535.43 2.069.594 4.902.594 7.999 0 3.097-.165 5.93-.594 7.998-.214 1.031-.501 1.907-.888 2.535-.389.632-.927 1.083-1.644 1.083-.718 0-1.257-.451-1.646-1.083-.387-.628-.673-1.504-.887-2.535-.43-2.068-.595-4.901-.595-7.998 0-3.097.166-5.93.595-7.999.214-1.03.5-1.907.887-2.535.389-.631.928-1.082 1.646-1.082zm34.782-.002c.717 0 1.257.452 1.645 1.083.387.628.673 1.504.887 2.535.43 2.069.596 4.902.596 7.999 0 3.097-.166 5.93-.596 7.998-.214 1.031-.5 1.907-.887 2.535-.388.632-.928 1.083-1.645 1.083s-1.256-.451-1.645-1.083c-.387-.628-.672-1.504-.887-2.535-.429-2.068-.595-4.901-.595-7.998 0-3.097.166-5.93.595-7.999.215-1.031.5-1.907.887-2.535.389-.631.928-1.083 1.645-1.083z" fill="currentColor" stroke="#EBFF00" stroke-width="0.855432" stroke-linejoin="round"></path></mask><g mask="url(#a-logo-icon-7)"><path d="M44.483 156.115l109.495-87.254 2.566 85.971-58.17 27.802-53.891-26.519z" fill="currentColor"></path></g></svg>