<svg width="200" height="200" viewBox="0 0 200 200" fill="none" xmlns="http://www.w3.org/2000/svg" id="logo-icon-6"><path d="M41.916 14.542V125.32c0 31.418 25.469 56.887 56.886 56.887v0c31.418 0 56.887-25.469 56.887-56.887V14.542M152.267 35.072H41.917M41.916 14.542v21.386M70.36 14.542v21.386M98.802 14.542v21.386M127.245 14.542v21.386M155.689 14.542v21.386" stroke="currentColor" stroke-width="10.2652"></path><mask id="a" maskUnits="userSpaceOnUse" x="44" y="39" width="55" height="42" style="mask-type: alpha;"><path d="M97.947 39.777v40.41H45.27v-40.41h52.677z" fill="currentColor" stroke="#000" stroke-width="0.855432"></path></mask><g mask="url(#a)" stroke="currentColor" stroke-width="10.2652"><path d="M79.448 7.784L15.331 71.902M93.965 22.302L29.848 86.419M108.482 36.818l-64.117 64.118M123 51.336l-64.118 64.117M137.517 65.853L73.399 129.97M152.034 80.37l-64.118 64.118"></path></g><mask id="b" maskUnits="userSpaceOnUse" x="98" y="39" width="54" height="42" style="mask-type: alpha;"><path d="M98.802 39.777v40.41h52.677v-40.41H98.802z" fill="currentColor" stroke="#000" stroke-width="0.855432"></path></mask><g mask="url(#b)" stroke="currentColor" stroke-width="10.2652"><path d="M117.301 7.784l64.118 64.118M102.784 22.302l64.118 64.117M88.267 36.818l64.117 64.118M73.75 51.336l64.117 64.117M59.233 65.853l64.117 64.117M44.716 80.37l64.117 64.118"></path></g><path d="M101.16 94.531l-.001.001c3.938.07 8.828.453 13.354 1.782l.851.263c4.256 1.38 8.481 3.77 10.973 7.984l.256.445c2.594 4.651 3.818 11.031 4.379 16.825l.123 1.39c.251 3.112.328 6.138.304 8.79a9.775 9.775 0 011.367-.097c2.112 0 3.789 1.002 4.885 2.481l.182.257c.881 1.307 1.289 2.846 1.455 4.234l.055.553c.204 2.613-.303 5.574-1.411 7.831l-.247.472c-1.286 2.316-3.394 4.17-5.592 5.362l-.44.23c-1.731.866-3.856 1.492-5.938 1.336-4.415 3.845-13.796 9.822-24.646 9.932l.001.001-.039.001H100.711l-.042-.001v-.001c-10.85-.11-20.23-6.087-24.645-9.932-1.95.146-3.937-.393-5.603-1.174l-.334-.162c-2.207-1.104-4.374-2.881-5.766-5.135l-.267-.457c-1.364-2.457-1.953-5.933-1.604-8.856l.08-.563c.22-1.326.677-2.739 1.558-3.928l.212-.272c1.095-1.329 2.693-2.209 4.673-2.209.47 0 .927.035 1.367.097a98.11 98.11 0 01.428-10.18l.117-1.128c.629-5.671 1.92-11.752 4.517-16.142l.254-.415c2.693-4.23 7.176-6.54 11.57-7.832l.853-.239c4.28-1.137 8.808-1.478 12.499-1.543v0c.077-.005.153-.008.23-.007l.064.001h.059l.229.005zm-.287 3.37h-.008l-.073-.003c-.006.001-.013.003-.02.003a72.75 72.75 0 00-1.278.032l-1.324.057c-3.671.197-7.747.732-11.36 1.994-3.5 1.223-6.543 3.119-8.38 6.026l-.173.285c-1.993 3.371-3.184 8.13-3.852 13.055-.666 4.919-.806 9.976-.716 13.923l.031 1.094c.037 1.062.091 2.022.154 2.854v.05a.257.257 0 01-.508.014c-.014-.077-.073-.203-.21-.367a3.163 3.163 0 00-.564-.512c-.425-.309-1-.611-1.68-.823l-.297-.085a6.532 6.532 0 00-1.642-.212c-.975 0-1.7.428-2.223 1.134-.53.716-.857 1.725-.994 2.871-.275 2.295.222 5.036 1.2 6.798.977 1.76 2.72 3.278 4.605 4.221 1.891.946 3.869 1.286 5.318.775l.07-.015a.258.258 0 01.196.075c3.003 2.972 10.817 8.586 20.134 9.835l.906.108.64.058c.643.05 1.291.08 1.945.084h.1l.037.001h.053l.009-.001a27.269 27.269 0 002.585-.142l.906-.108c9.317-1.249 17.131-6.863 20.134-9.835l.058-.043a.255.255 0 01.208-.017c1.449.511 3.427.171 5.318-.775 1.884-.943 3.628-2.461 4.605-4.221l.178-.342c.859-1.761 1.279-4.304 1.022-6.456-.137-1.146-.464-2.155-.994-2.871-.524-.706-1.248-1.134-2.223-1.134-.439 0-.86.045-1.255.123l-.387.089a5.965 5.965 0 00-1.976.908 3.197 3.197 0 00-.566.512c-.102.123-.16.224-.189.3l-.02.067a.257.257 0 01-.508-.064c.084-1.109.152-2.447.186-3.948l.022-1.529c.024-3.68-.157-8.09-.74-12.394-.646-4.772-1.784-9.388-3.667-12.736l-.184-.319c-1.815-3.068-4.941-5.048-8.554-6.31-3.387-1.184-7.18-1.728-10.666-1.954l-.693-.04a69.365 69.365 0 00-2.602-.09l-.021-.003-.073.002zm-15.755 22.993c.626 0 1.11.398 1.473 1.002s.638 1.457.846 2.48c.416 2.05.578 4.869.578 7.963 0 3.094-.162 5.911-.578 7.962-.208 1.023-.483 1.876-.846 2.479-.363.604-.847 1.004-1.473 1.004-.625 0-1.108-.4-1.471-1.004-.363-.603-.638-1.456-.846-2.479-.416-2.051-.58-4.868-.58-7.962 0-3.094.164-5.913.58-7.963.208-1.023.483-1.876.846-2.48.363-.603.846-1.002 1.471-1.002zm31.793 0c.626 0 1.109.399 1.472 1.002.363.604.638 1.457.846 2.48.416 2.05.579 4.869.579 7.963 0 3.094-.163 5.911-.579 7.962-.208 1.023-.483 1.876-.846 2.479-.363.604-.846 1.004-1.472 1.004-.625 0-1.109-.4-1.472-1.004-.363-.603-.638-1.456-.846-2.479-.416-2.051-.579-4.868-.579-7.962 0-3.094.163-5.913.579-7.963.208-1.023.483-1.876.846-2.48.363-.604.847-1.002 1.472-1.002z" fill="currentColor" stroke="currentColor" stroke-width="0.513259" stroke-linejoin="round"></path></svg>