<svg width="200" height="200" viewBox="0 0 200 200" fill="none" xmlns="http://www.w3.org/2000/svg" id="logo-icon-3"><path d="M151.447 39.253V58.92c-4.209.087-9.343.49-14.216 1.788l-.992.277c-5.105 1.503-10.4 4.218-13.593 9.243l-.303.495c-3.042 5.152-4.535 12.242-5.259 18.79l-.135 1.301c-.378 3.911-.509 7.761-.497 11.131a11.803 11.803 0 00-1.004-.043c-2.456 0-4.443 1.101-5.796 2.744l-.261.336c-1.158 1.565-1.705 3.427-1.942 5.1l-.044.332c-.413 3.464.278 7.581 1.907 10.523l.32.547c1.662 2.697 4.235 4.807 6.843 6.114l.395.191c1.905.894 4.192 1.537 6.478 1.418 4.614 3.976 13.653 9.798 24.382 11.13a34.198 34.198 0 01-12.376 13.516l-35.66 22.269-35.66-22.269A34.201 34.201 0 0151.78 140.58c11.971-.538 22.225-7.048 27.244-11.373 2.446.128 4.895-.617 6.874-1.609l.52-.273c2.6-1.413 5.107-3.615 6.644-6.388l.149-.279c1.423-2.73 2.071-6.38 1.821-9.587l-.064-.657c-.197-1.646-.684-3.512-1.762-5.114l-.224-.318c-1.352-1.828-3.438-3.08-6.057-3.08-.341 0-.677.015-1.005.043a115.01 115.01 0 00-.355-9.524l-.141-1.607c-.646-6.68-2.058-14.115-5.095-19.57l-.299-.521c-2.957-5.01-7.952-7.821-12.907-9.431l-.99-.307c-5.266-1.55-10.939-1.991-15.482-2.07l-.271-.009h-.001l-.037.001h-.089a3.99 3.99 0 00-.273.007c-.658.012-1.34.032-2.04.06V39.254L64.781 23l17.215 16.253L99.694 23l17.697 16.253L134.606 23l16.841 16.253zm-63.3 109.273l10.899 10.9 10.898-10.9-10.898-10.898-10.9 10.898zm-36.208-12.101c-.499.028-1 .044-1.505.048v.001H50.2v-.001l-.22-.006.221.005v.001h.233l.756-.016.75-.032zm97.006-.118l.503.045-.504-.045-.525-.058c.175.021.351.04.526.058zm-2.6-.369c-.171-.03-.342-.063-.512-.096l-.102-.022c.204.041.409.081.614.118zM50.42 63.909c.951.015 1.945.047 2.966.102l.79.047c3.973.257 8.27.877 12.09 2.214 4.08 1.428 7.53 3.641 9.521 7.013l.206.36c2.108 3.756 3.403 8.98 4.142 14.445.665 4.917.87 9.962.843 14.173l-.025 1.752a86.228 86.228 0 01-.212 4.508.857.857 0 00.746.915.857.857 0 00.95-.701l-.003.018c.003-.006.028-.067.122-.18a3.1 3.1 0 01.547-.493c.5-.364 1.217-.73 2.08-.955l.41-.095a6.87 6.87 0 011.333-.13c.923 0 1.594.393 2.1 1.077.53.716.885 1.771 1.035 3.035.284 2.378-.187 5.191-1.119 7.108l-.192.371c-1.056 1.907-2.964 3.58-5.046 4.624-2.106 1.056-4.207 1.38-5.665.864a.858.858 0 00-.795.121l-.093.079c-3.445 3.417-12.538 9.943-23.295 11.217l-.514.057c-.96.098-1.934.155-2.915.162h-.22c-.175-.001-.35-.004-.525-.009a34.189 34.189 0 01-1.742-10.778V63.977l.069-.003a80.794 80.794 0 012.206-.065l.04-.003.05.001H50.379l.04.002zm101.027 60.921c0 3.684-.593 7.286-1.713 10.69l-.702-.065c-10.981-1.123-20.309-7.803-23.809-11.274a.859.859 0 00-.771-.232l-.117.032c-1.458.516-3.559.192-5.665-.864-2.082-1.044-3.99-2.717-5.046-4.624-1.059-1.911-1.614-4.942-1.312-7.479.151-1.264.506-2.319 1.037-3.035.505-.684 1.176-1.077 2.099-1.077.621 0 1.208.085 1.742.225l.318.091a6.148 6.148 0 011.763.864c.249.182.431.354.547.493.102.123.123.183.123.179l.015.065a.857.857 0 00.931.619.858.858 0 00.748-.83l-.002-.085a81.588 81.588 0 01-.176-3.257l-.036-1.251c-.103-4.519.058-10.305.818-15.925.763-5.64 2.117-11.026 4.348-14.805l.191-.312c2.016-3.197 5.378-5.317 9.329-6.7 4.076-1.427 8.693-2.038 12.881-2.262l.76-.037a79.156 79.156 0 011.699-.054v60.91zm-111.65-3.183l-10.899 10.899L18 121.647l10.898-10.898 10.9 10.898zm142.002 0l-10.9 10.899-10.898-10.899 10.898-10.898 10.9 10.898zm-48.666 9.372l.781.432a51.806 51.806 0 01-.782-.432l-.758-.439c.249.147.502.293.759.439zM77.4 125.132l-.387.359a24.1 24.1 0 00.387-.359zm47.574-.001l.386.36a24.315 24.315 0 01-.741-.703h.001c.112.111.23.226.354.343zm-32.96-4.094l-.086.131.144-.231-.058.1zm.3-.515l-.079.135.079-.135.03-.059c-.01.019-.019.04-.03.059zm20.31-2.106c.08.17.164.334.251.491l.211.361a8.344 8.344 0 01-.462-.851v-.001zm-23.004.264a9.128 9.128 0 01-.318.562l.196-.335a9.47 9.47 0 00.122-.228v.001zm22.215-2.509a13.653 13.653 0 000 .001v-.001zM68.729 89.228c-.998 0-1.704.65-2.17 1.427-.466.775-.797 1.828-1.04 3.028-.49 2.414-.676 5.7-.676 9.268 0 3.568.186 6.855.676 9.269.243 1.199.574 2.253 1.04 3.028.466.777 1.172 1.426 2.17 1.426.997 0 1.703-.649 2.17-1.426.465-.775.796-1.829 1.04-3.028.489-2.414.675-5.701.675-9.269 0-3.568-.186-6.854-.675-9.268-.244-1.2-.575-2.253-1.04-3.028-.467-.776-1.172-1.426-2.17-1.427zm65.25 0c-.998 0-1.704.65-2.17 1.427-.466.775-.797 1.828-1.04 3.028-.49 2.414-.675 5.7-.675 9.268 0 3.568.185 6.855.675 9.269.243 1.199.574 2.253 1.04 3.028.466.777 1.172 1.426 2.17 1.426.997 0 1.704-.649 2.17-1.426.466-.774.796-1.829 1.039-3.028.49-2.414.676-5.701.676-9.269 0-3.568-.186-6.854-.676-9.268-.243-1.2-.573-2.253-1.039-3.028-.466-.776-1.173-1.426-2.17-1.427zm-2.55 21.811c-.018-.117-.037-.237-.054-.357l-.004-.032c.018.132.038.261.058.389zM39.798 99.794l-10.9 10.898L18 99.794l10.898-10.9 10.9 10.9zm142.001 0l-10.9 10.898-10.898-10.898 10.898-10.9 10.9 10.9zm-87.764 10.128l.084.594a14.226 14.226 0 00-.09-.621l.006.027zm17.706-.459l-.115.467c.034-.159.072-.315.114-.467l.138-.447c-.05.145-.095.294-.137.447zm.386-1.076l.095-.198.042-.081a5.153 5.153 0 00-.137.279zm7.856-.835l.188.162a3.924 3.924 0 00-.188-.161l-.209-.162c.074.053.143.107.209.161zm-7.066-.396l-.132.153c.043-.052.086-.103.131-.153l.139-.144a3.768 3.768 0 00-.138.144zm.433-.406l-.152.126c.049-.044.1-.086.151-.126l.157-.117a3.522 3.522 0 00-.156.117zm-21.054-1.259l.202.287a8.003 8.003 0 00-.203-.286l-.229-.294c.08.096.156.193.23.293zm22.87.568a.971.971 0 01.056-.005l.225-.007c-.095 0-.189.005-.281.012zm-4.605-1.154a7.344 7.344 0 00-.483.587l-.019.028.019-.029c.076-.102.153-.202.234-.3l.249-.286zm.539-.529l-.277.257a6.76 6.76 0 01.277-.258l.291-.241c-.1.078-.197.159-.291.242zm-39.35-.109l-.008.34c.004-.198.007-.398.009-.599l-.001.259zm65.25 0l-.006.258.007-.434-.001.176zm-65.241-1.316l-.004.562c.001-.186.003-.373.003-.561 0-.439-.003-.872-.009-1.3v-.001c.006.428.01.861.01 1.3zm42.79-.135l.051-.007c.03-.004.061-.006.091-.009l-.142.016zm-27.194-.045a6.53 6.53 0 01-.43-.012 10.948 10.948 0 000-.001l.43.013zm29 .025a9.786 9.786 0 00-.425-.027l-.015-.001c.148.006.295.016.44.028zm-.588-.031a11.314 11.314 0 00-.32-.006l-.113.002.114-.003.319.007zm-49.772-6.486l-.055.54a36.11 36.11 0 01.055-.54zm.083-.706l.018-.132-.018.132zm.114-.805a26.93 26.93 0 000-.001zm18.093-6.46c.11.87.206 1.734.288 2.588l.14 1.594c.042.507.076 1.011.11 1.513-.068-1.026-.15-2.064-.25-3.106a91.743 91.743 0 00-.288-2.59zM66.653 92.64l-.106.381c.034-.13.069-.258.105-.381l.114-.359c-.04.116-.076.235-.113.359zm1.085-2.122l.03-.029c.025-.023.052-.044.078-.065-.036.03-.072.061-.108.094zm.513-.344a1.32 1.32 0 01.066-.025l.1-.028a1.27 1.27 0 00-.166.053zm65.29-.014l.026-.01.1-.029a1.21 1.21 0 00-.126.04zm-64.706-.072c.017.001.034.004.05.006a1.315 1.315 0 00-.157-.01l-.106.004c.035-.003.07-.005.106-.005l.107.005zm65.25 0c.011 0 .022.003.033.004a1.307 1.307 0 00-.139-.008l-.107.004c.035-.003.071-.005.107-.005l.106.005zM39.798 77.957l-10.9 10.899L18 77.957l10.898-10.9 10.9 10.9zm142.001 0l-10.9 10.899-10.898-10.899 10.898-10.9 10.9 10.9zm-102.505-6.8l.29.506a24.35 24.35 0 01-.29-.505c-.057-.096-.116-.19-.174-.285.058.094.117.188.174.284zM39.798 56.14l-10.9 10.9L18 56.14 28.898 45.24l10.9 10.899zm142.001 0l-10.9 10.9-10.898-10.9 10.898-10.899 10.9 10.899zM50.201 63.054v-.003.003zm85.23-.921l.08-.027.67-.207c-.25.076-.501.152-.75.234zm-84.798-2.365l.858.02a83.995 83.995 0 01-1.1-.025h-.149c-.08-.001-.161 0-.241.006l-.857.018.858-.02c.08-.004.16-.006.241-.005h.149c.08-.001.161 0 .24.006z" fill="currentColor"></path></svg>