<svg width="200" height="200" viewBox="0 0 200 200" fill="none" id="logo-icon-1" xmlns="http://www.w3.org/2000/svg"><path d="M163.387 123.969c0 23.105-12.789 42.283-65.013 59.949-52.223-17.666-65.012-36.844-65.012-59.949V32.507h130.025v91.462zM42.772 41.917v78.251c0 10.128 2.876 19.711 11.5 28.502 8.38 8.54 21.89 16.029 42.455 23.001l1.648.558 1.648-.558c20.565-6.972 34.075-14.46 42.454-23.001 8.625-8.792 11.501-18.374 11.501-28.502V41.917H42.772zm34.003 20.53v1.116H83.8c6.348 0 11.607 3.68 14.826 6.548.401.357.784.714 1.146 1.065.298-.31.611-.627.94-.942 3.194-3.053 8.378-6.67 15.175-6.67h3.231v-1.117h23.738V98.56c1.353 1.783 1.928 3.873 2.149 5.632.428 3.401-.24 7.409-1.885 10.405l-.163.287-.101.169v3.843c0 8.15-2.276 15.768-9.146 22.811-6.748 6.918-17.781 13.128-34.936 18.978l-.828.282-.828-.282c-17.155-5.85-28.188-12.06-34.936-18.978-6.87-7.043-9.146-14.661-9.146-22.811V62.447h23.738zm-18.606 56.449c0 7.019 1.89 13.282 7.688 19.227 5.822 5.969 15.728 11.759 32.09 17.417 16.362-5.658 26.267-11.448 32.09-17.417 5.413-5.55 7.418-11.378 7.661-17.84-.75.494-1.52.928-2.287 1.293-.929.442-1.977.841-3.092 1.133-.674 4.481-2.67 8.722-6.813 12.673-5.155 4.918-13.511 9.269-26.355 13.345l-.775.246-.777-.246c-12.844-4.076-21.2-8.428-26.355-13.345-4.538-4.329-6.5-9.005-6.97-13.963-2.221-1.109-4.435-2.767-6.105-4.889v2.366zm11.55 4.202c.667 3.009 2.19 5.825 5.068 8.57 4.224 4.029 11.477 8.005 23.587 11.916 12.112-3.911 19.365-7.887 23.589-11.916 2.369-2.26 3.819-4.569 4.63-6.993-5.098 3.633-13.154 7.87-22.452 8.913l-.585.061a37.65 37.65 0 01-3.402.178l-.039.002h-.09l-.017-.001.001.001h-.115l-.045-.002v.001a37.977 37.977 0 01-2.563-.106l-.841-.073c-10.86-1.054-20.095-6.524-25.01-10.461-.577.01-1.152-.024-1.717-.09zm4.514-54.4l-.211.348c-4.374 7.417-5.185 21-4.985 29.364.038 1.615.115 3.058.21 4.253-.111-.603-1.418-1.667-3.316-2.138a8.033 8.033 0 00-1.926-.235c-4.802 0-4.802 8.111-2.529 12.007 2.273 3.896 8.065 6.659 11.548 5.49 3.529 3.323 12.869 9.681 23.917 10.754.97.094 1.952.147 2.945.154v.001h.229v-.001c.993-.007 1.976-.06 2.945-.154 11.048-1.073 20.389-7.431 23.917-10.754 3.127 1.049 8.116-1.072 10.747-4.337v-12.723c-.488-.28-1.062-.437-1.728-.437-.687 0-1.336.089-1.926.235-1.898.471-3.205 1.535-3.317 2.138.096-1.195.173-2.638.211-4.253.203-8.496-.637-22.38-5.196-29.713h-9.88c-9.801 0-15.86 10.447-15.888 10.494-.02-.028-7.149-10.169-15.786-10.487l-.413-.008-9.568.001zm74.613-21.648v73.118l-.008.84c.005-.279.007-.56.007-.841V47.05h.001zM80.673 83.48c2.474 0 3.283 6.229 3.283 13.913 0 7.683-.809 13.911-3.283 13.912-2.473-.001-3.28-6.229-3.28-13.912 0-7.684.806-13.913 3.28-13.913zm39.524 0c2.474 0 3.282 6.23 3.282 13.913s-.809 13.911-3.282 13.912c-2.474 0-3.282-6.229-3.282-13.912 0-7.684.808-13.913 3.282-13.913zm-62.028-15.9v29.842c1.474-1.372 3.427-2.233 5.711-2.264.032-3.849.273-8.323.885-12.744.696-5.022 1.933-10.458 4.206-14.834H58.17zm72.861 0c2.273 4.376 3.51 9.812 4.206 14.834.612 4.42.852 8.895.884 12.744.555.007 1.09.065 1.604.166V67.58h-6.694zM83.795 53.087c4.883 0 9.285 1.441 12.408 2.83a36.58 36.58 0 013.62 1.856 26.862 26.862 0 013.24-1.827 29.434 29.434 0 0112.685-2.858 46957.768 46957.768 0 0126.242.01h3.229c0 .011.001.17-.001 2.567l-.002 2.566h-.865l-2.363-.002-7.838-.003c-6.145-.003-13.512-.005-18.402-.005-4.429 0-8.007 1.18-10.474 2.357a21.477 21.477 0 00-2.808 1.6 13.713 13.713 0 00-.842.619l-.023.018-1.521 1.314-1.637-1.164-.007-.005-.043-.03a22.37 22.37 0 00-1.059-.668 31.372 31.372 0 00-3.217-1.656c-2.744-1.22-6.409-2.386-10.322-2.386H53.914v-5.132h11.641l18.24-.001zm17.806 9.728l-.002.002a.01.01 0 01-.003.002l.005-.005v.001zM101.967 19.675h7.186v-5.133h7.186v10.265H80.411V14.542h7.185v5.133h7.186v-5.133h7.185v5.133z" fill="currentColor"></path></svg>