<svg width="200" height="200" viewBox="0 0 200 200" fill="none" id="logo-icon-4" xmlns="http://www.w3.org/2000/svg"><g clip-path="url(#clip0_75_687)"><path d="M55.767 20.53l4.225-.662-.566-3.615h-3.66v4.277zm14.377 11.976v4.277-4.277zM84.52 20.53v-4.277h-3.66l-.566 3.616 4.226.661zm28.56 0l4.226-.662-.566-3.615h-3.66v4.277zm14.377 11.976v4.277-4.277zm14.376-11.976v-4.277h-3.659l-.567 3.616 4.226.661zm13.855 0h4.277v-4.277h-4.277v4.277zm0 98.247h4.277-4.277zm-18.281 30.28l1.992 3.785-1.992-3.785zm-38.606 20.318l-1.992 3.785 1.992 1.048 1.992-1.048-1.992-3.785zm-38.606-20.318l-1.992 3.785 1.992-3.785zm-18.28-30.28H37.64h4.277zm0-98.247v-4.277H37.64v4.277h4.277zm13.85 0l-4.225.662c1.397 8.923 9.276 15.591 18.603 15.591v-8.554c-5.239 0-9.425-3.723-10.152-8.36l-4.225.661zm14.378 11.976v4.277c9.326 0 17.205-6.668 18.602-15.591l-4.225-.662-4.226-.662c-.726 4.638-4.913 8.36-10.151 8.36v4.278zM84.52 20.53v4.277h28.56v-8.554h-28.56v4.277zm28.56 0l-4.225.662c1.397 8.923 9.276 15.591 18.602 15.591v-8.554c-5.238 0-9.425-3.723-10.151-8.36l-4.226.661zm14.377 11.976v4.277c9.327 0 17.204-6.668 18.602-15.591l-4.226-.662-4.226-.662c-.726 4.638-4.912 8.36-10.15 8.36v4.278zm14.376-11.976v4.277h13.855v-8.554h-13.855v4.277zm13.855 0h-4.278v98.247h8.555V20.53h-4.277zm0 98.247h-4.278a29.941 29.941 0 01-15.995 26.495l1.992 3.785 1.992 3.785a38.495 38.495 0 0020.566-34.065h-4.277zm-18.281 30.28l-1.992-3.785L96.81 165.59l1.992 3.785 1.992 3.785 38.606-20.318-1.992-3.785zm-38.606 20.318l1.992-3.785-38.605-20.318-1.993 3.785-1.992 3.785L96.81 173.16l1.992-3.785zm-38.606-20.318l1.992-3.785a29.942 29.942 0 01-15.995-26.495H37.64a38.496 38.496 0 0020.565 34.065l1.992-3.785zm-18.28-30.28h4.277V20.53H37.64v98.247h4.277zm0-98.247v4.277h13.85v-8.554h-13.85v4.277z" fill="currentColor"></path></g><mask id="a-logo-icon-4" maskUnits="userSpaceOnUse" x="37" y="27" width="123" height="108" style="mask-type: alpha;"><path d="M159.966 27.373V134.56H37.639V27.373h122.327z" fill="currentColor"></path></mask><g mask="url(#a-logo-icon-4)"><path d="M100.807 49.137l-.232.007-.001-.001c-4.124.07-9.256.464-14.01 1.833l-.894.27c-4.469 1.42-8.927 3.888-11.561 8.255l-.27.458c-2.73 4.8-4.011 11.37-4.599 17.314l-.128 1.427c-.257 3.123-.34 6.16-.32 8.836-.41-.05-.834-.076-1.27-.076-2.26 0-4.057 1.052-5.232 2.605l-.195.27c-.94 1.37-1.373 2.977-1.549 4.415l-.057.574c-.216 2.707.319 5.773 1.493 8.116l.26.492c1.363 2.406 3.593 4.325 5.913 5.559l.464.238c1.808.886 4.03 1.535 6.223 1.389 4.651 3.956 14.462 10.063 25.814 10.176v.001l.042.001h.017l.048.001h.056l.051-.001.056.001h.05l.062-.001v-.001h.045v-.001c11.352-.113 21.164-6.22 25.815-10.176 2.051.137 4.129-.422 5.869-1.222l.352-.167c2.328-1.142 4.618-2.982 6.093-5.323l.284-.474c1.446-2.554 2.066-6.154 1.697-9.182l-.085-.583c-.232-1.377-.717-2.855-1.66-4.102l-.227-.285c-1.173-1.395-2.886-2.32-5.005-2.32-.435 0-.858.027-1.268.076a98.676 98.676 0 00-.45-10.263l-.123-1.158c-.658-5.821-2.011-12.083-4.745-16.614l-.269-.43c-2.846-4.383-7.575-6.768-12.186-8.095l-.895-.245c-4.497-1.172-9.249-1.522-13.116-1.588v0a3.31 3.31 0 00-.232-.006h-.125zm.057 3.788h.011l.067-.002c.009 0 .018.004.027.004.435.007.88.016 1.333.031l1.382.06c3.831.2 8.075.748 11.833 2.035 3.642 1.247 6.785 3.174 8.678 6.111l.179.288c2.067 3.426 3.308 8.277 4.004 13.317.695 5.031.842 10.206.748 14.246l-.032 1.118a70.983 70.983 0 01-.161 2.918l.002.084a.426.426 0 00.822.105l.035-.12c.021-.052.069-.139.17-.258.128-.15.315-.322.561-.498a5.999 5.999 0 011.71-.821l.304-.085a6.787 6.787 0 011.679-.212c.967 0 1.679.413 2.197 1.099.531.702.867 1.704 1.008 2.862.283 2.32-.232 5.093-1.234 6.864-1.002 1.77-2.798 3.305-4.745 4.26-1.959.961-3.981 1.292-5.441.787l-.057-.015a.427.427 0 00-.38.113c-3.224 3.128-11.792 9.135-21.903 10.147l-.666.06a28.8 28.8 0 01-2.023.086l-.009.001h-.187l-.009-.001a29.15 29.15 0 01-2.69-.146l-.942-.109c-9.698-1.275-17.837-7.007-20.96-10.038l-.045-.039a.43.43 0 00-.392-.059c-1.46.505-3.482.174-5.44-.787-1.949-.955-3.744-2.49-4.746-4.26l-.183-.343c-.881-1.773-1.317-4.345-1.051-6.521.14-1.158.476-2.16 1.007-2.862.519-.686 1.23-1.099 2.198-1.099.449 0 .879.045 1.283.123l.395.089c.83.212 1.524.556 2.015.906.246.176.433.348.56.498.102.12.15.207.17.258l.036.12a.427.427 0 00.824-.19 75.84 75.84 0 01-.194-4.035l-.023-1.567c-.025-3.765.163-8.277.772-12.678.674-4.883 1.86-9.589 3.812-12.993l.192-.325c1.87-3.099 5.097-5.111 8.857-6.4 3.523-1.206 7.473-1.763 11.11-1.993l.723-.041c.467-.025.929-.045 1.382-.06l1.333-.031c.009 0 .019-.003.028-.004l.066.002zm16.472 23.238c-.729 0-1.277.46-1.674 1.106-.394.642-.686 1.538-.905 2.594-.439 2.12-.608 5.022-.608 8.197 0 3.174.169 6.077.608 8.196.219 1.056.511 1.952.905 2.595.397.645.945 1.105 1.674 1.105s1.278-.46 1.674-1.105c.394-.643.687-1.54.905-2.595.439-2.12.609-5.022.609-8.196 0-3.175-.17-6.078-.609-8.197-.218-1.056-.511-1.952-.905-2.594-.396-.646-.945-1.106-1.674-1.106zm-33.237 0c-.73 0-1.278.46-1.674 1.106-.394.642-.686 1.538-.905 2.594-.44 2.12-.609 5.022-.609 8.197 0 3.174.17 6.077.609 8.196.219 1.056.51 1.952.905 2.595.396.645.945 1.105 1.674 1.105s1.278-.46 1.674-1.105c.394-.643.686-1.54.905-2.595.439-2.12.608-5.022.608-8.196 0-3.175-.169-6.078-.608-8.197-.219-1.056-.51-1.952-.905-2.594-.396-.646-.945-1.106-1.674-1.106z" fill="currentColor" stroke="currentColor" stroke-width="0.855432" stroke-linejoin="round"></path></g><path d="M159.966 130.025a31.484 31.484 0 01-16.757 27.827l-44.407 23.5-44.406-23.5a31.485 31.485 0 01-16.757-27.827h122.327zm-52.506 18.094l8.681 8.681 8.681-8.681-8.681-8.681-8.681 8.681zm-33.893-.003l8.68 8.681 8.68-8.681 8.267 8.267 8.266-8.267-8.266-8.267-8.267 8.266-8.68-8.679-8.68 8.68z" fill="currentColor"></path><defs><clipPath id="clip0_75_687"><path fill="currentColor" transform="translate(34.217 15.398)" d="M0 0H129.17V103.507H0z"></path></clipPath></defs></svg>