<svg width="200" height="200" viewBox="0 0 200 200" id="logo-icon-2" fill="none" xmlns="http://www.w3.org/2000/svg"><path d="M170.636 59.85c-24.614 35.043-10.256 68.138 0 80.305l-73.008 41.196-71.965-41.196c22.945-32.956 9.56-67.268 0-80.304l30.768-30.767s16.912 6.258 44.177 6.258c27.251 0 40.809-6.251 40.824-6.258l29.204 30.767zm-64.962 78.252H86.527v19.147h19.148v-19.146h18.234v-18.237h-18.235v18.236zm18.236-18.235h19.147V100.72H123.91v19.147zM84.734 48.882c-.066-.001-.132 0-.198.004v-.001c-3.164.054-7.069.341-10.772 1.308l-.738.204c-3.794 1.095-7.74 3.075-10.122 6.752l-.225.362c-2.266 3.764-3.376 8.94-3.915 13.712l-.1.949a80.863 80.863 0 00-.37 8.049 8.933 8.933 0 00-.697-.029 5.551 5.551 0 00-4.336 2.016l-.197.248c-.81 1.074-1.22 2.337-1.416 3.497l-.071.49v.001c-.309 2.537.206 5.55 1.424 7.706l.24.402c1.24 1.975 3.16 3.517 5.102 4.471l.295.141c1.414.651 3.112 1.119 4.811 1.036 3.865 3.262 11.88 8.218 21.163 8.309l.007-.001.02.001.057.001h.216l-.001-.001h.018l.023-.001.001.001c9.283-.091 17.297-5.047 21.162-8.309 1.819.089 3.637-.454 5.107-1.177l.387-.198c1.936-1.032 3.807-2.642 4.955-4.675l.22-.414c.988-1.975 1.432-4.544 1.252-6.811l-.048-.482c-.147-1.206-.511-2.576-1.319-3.754l-.168-.233c-1.015-1.346-2.577-2.264-4.534-2.264-.237 0-.469.01-.697.029a82.282 82.282 0 00-.263-6.878l-.106-1.171c-.48-4.868-1.529-10.295-3.792-14.28l-.222-.381c-2.207-3.666-5.929-5.718-9.613-6.892l-.736-.222c-3.917-1.13-8.134-1.454-11.509-1.512l-.2-.004h-.038l-.056-.001v.002zm.08 56.549h-.118l.086-.001.032.001zm.616-.012l-.561.011c.238-.002.476-.009.713-.018l-.152.007zm2.41-.197c-.248.032-.497.062-.747.088-.062.006-.125.01-.187.015l.187-.016c.25-.026.499-.055.747-.087zm.41-.06c-.12.018-.24.038-.36.054.12-.016.24-.036.36-.054zm.886-.145c-.138.025-.276.051-.414.074.138-.023.276-.049.414-.074zm-9.727-.203a26.426 26.426 0 00.753.157l-.753-.157zm10.497.051zm.797-.18zm-5.845-52.038c.706.01 1.443.033 2.2.073l1.18.075c2.78.209 5.732.663 8.376 1.57 3.025 1.039 5.574 2.646 7.042 5.084l.302.528c1.471 2.702 2.387 6.38 2.918 10.227.493 3.577.646 7.247.626 10.312l-.02 1.274a61.942 61.942 0 01-.157 3.28.685.685 0 001.357.174l-.002.019a.667.667 0 01.076-.105c.082-.097.213-.22.396-.35a4.678 4.678 0 011.53-.689l.303-.068c.309-.06.638-.095.982-.095.674 0 1.158.28 1.523.764.385.51.646 1.266.757 2.178.209 1.72-.139 3.753-.824 5.136l-.142.268c-.777 1.375-2.183 2.587-3.724 3.344-1.558.767-3.108 1-4.177.628a.684.684 0 00-.628.094l-.073.062c-2.512 2.443-9.083 7.08-16.895 8.11l-.76.088c-.711.071-1.432.112-2.16.117l-.009.001h-.145l-.009-.001a23.014 23.014 0 01-1.625-.069l-.536-.048c-8.143-.817-15.062-5.676-17.654-8.198a.685.685 0 00-.609-.181l-.093.025c-1.069.37-2.618.139-4.176-.627-1.54-.758-2.948-1.97-3.725-3.345-.778-1.378-1.188-3.57-.965-5.404.111-.912.371-1.668.756-2.178.365-.484.85-.764 1.523-.764.459 0 .891.062 1.286.163l.233.066c.533.163.977.394 1.297.623.183.13.314.253.396.35.094.11.084.14.075.086l.036.129a.685.685 0 001.316-.169l.003-.134a57.85 57.85 0 01-.13-2.37l-.027-.91c-.076-3.288.044-7.498.607-11.586.566-4.104 1.57-8.014 3.22-10.755l.14-.225c1.488-2.313 3.971-3.853 6.902-4.859 3.022-1.037 6.446-1.482 9.555-1.645l1.12-.048c.367-.012.728-.02 1.08-.025l.021-.003h.109l.022.003zm6.62 51.839c-.104.029-.209.055-.313.082.104-.027.209-.053.312-.082zm-14.264-.251l.72.211a27.757 27.757 0 01-.72-.21l-.71-.226c.234.078.471.153.71.225zm15.029.032l-.268.079.268-.079zm.754-.238l-.144.046.144-.046zm-21.089-1.946l.612.304a34.885 34.885 0 01-.612-.304zm25.75 0l-.613.304c.207-.1.41-.202.612-.304l.598-.311c-.197.105-.395.209-.597.311zm-26.732-.52zm28.472-.424l-.563.319c.248-.138.49-.278.727-.418-.055.032-.108.067-.164.099zm-28.949.16zm34.279-.855a31.516 31.516 0 01-.432.329l.432-.329zm-34.749.582zm30.379-.466zm-32.568-.925zm38.602-.11l-.126-.003c.042.002.084.002.126.002zm-3.635-.594zm-35.782.123l-.22-.16-.404-.308c.199.154.407.31.624.468zm44.291-.822a13.143 13.143 0 01.024-.012l-.024.012zm-55.579-5.594l.17.283a6.803 6.803 0 01-.17-.282l-.155-.295c.05.1.102.199.155.294zm58.62-.916a7.164 7.164 0 01-.429.917c-.054.095-.11.189-.169.282l.168-.283c.158-.28.302-.589.43-.917zm-59.055-.018l.135.328a8.03 8.03 0 01-.152-.374l.017.046zm59.314-.754a7.397 7.397 0 01-.08.264l-.087.257c.03-.085.058-.17.086-.257l.081-.264zm-59.428.44c-.008-.027-.018-.053-.027-.08l.028.08zm16.22-20.427c-.759 0-1.296.486-1.65 1.063-.351.574-.6 1.35-.78 2.227-.365 1.765-.504 4.165-.504 6.765 0 2.6.139 4.999.504 6.764.18.877.429 1.654.78 2.228.354.577.891 1.062 1.65 1.062.76 0 1.297-.485 1.65-1.062.352-.574.6-1.35.782-2.228.365-1.765.503-4.164.503-6.764 0-2.6-.138-5-.503-6.765-.181-.877-.43-1.653-.781-2.227-.354-.577-.891-1.063-1.65-1.063zm27.096 0c-.76 0-1.296.486-1.65 1.063-.352.574-.6 1.35-.78 2.227-.366 1.765-.505 4.165-.505 6.765 0 2.6.14 4.999.504 6.764.182.877.43 1.654.78 2.228.355.577.892 1.062 1.651 1.062s1.297-.485 1.65-1.062c.352-.574.6-1.35.782-2.228.365-1.765.503-4.164.503-6.764 0-2.6-.138-5-.503-6.765-.182-.877-.43-1.653-.782-2.227-.353-.577-.89-1.063-1.65-1.063zm-43.418 20.11zm-.462-3.123l.008.389c-.005-.13-.009-.26-.009-.388l.007-.385a9.78 9.78 0 00-.006.384zm.118-1.498l-.053.363c.015-.122.032-.243.052-.363l.07-.352a7.134 7.134 0 00-.069.352zm62.555-.358l.061.432a10.508 10.508 0 00-.064-.448l.003.016zm-55.691-.976v.005c0-.006-.004-.011-.005-.017 0 .004.004.008.005.012zm46.503-.73l-.051.735.072-1.103c-.007.126-.013.248-.021.369zm-46.555.588l.017.038-.017-.038zm-.074-.128zm-.092-.122l.044.055-.044-.055zm-.371-.358l.138.117a3.142 3.142 0 00-.14-.117l-.155-.117c.055.04.107.078.157.117zm-1.399-.754c.247.088.476.188.684.296l-.215-.104a5.687 5.687 0 00-.469-.192zm1.904.17l-.01-.197-.037-.862c.013.367.03.72.047 1.058zm48.54-.176a5.412 5.412 0 00-.015.005l.015-.005zm6.231-.32a5.108 5.108 0 01.001.002l-.001-.002zm-.45-.625l.162.205a5.083 5.083 0 00-.172-.216l.01.011zm-54.395-.857a74.785 74.785 0 01-.017-1.184l.017 1.184zm49.19-1.68l-.006.868.005-.95.001.082zm1.943.781l.095.011a5.112 5.112 0 00-.095-.01zm-.245-.021c.025.001.049.004.073.006a5.176 5.176 0 00-.128-.008l.055.002zm-52.49-12.19a61.517 61.517 0 00-.45 3.543 72.48 72.48 0 00-.106 1.16l.105-1.16c.076-.776.167-1.564.275-2.355l.176-1.189zm10.788 3.309l.06-.063.028-.022c-.03.026-.059.055-.088.085zm27.096 0c.02-.021.039-.043.06-.063l.028-.022c-.03.026-.06.055-.088.085zm7.979-9.92l.237.664a24.33 24.33 0 00-.238-.663l-.252-.643c.087.211.171.425.253.643zm-41.146-1.448c.064-.14.128-.28.196-.415l.01-.019c-.07.142-.139.287-.206.434zm39.73-1.54c.108.178.212.362.314.55l.298.575a15.338 15.338 0 00-.613-1.125l-.151-.245c.051.081.102.162.152.245zm2.534-.383zm-41.165-.07l-.011.018.012-.02v.002zm38.156-.262l.164.232a8.87 8.87 0 00-.215-.3c.017.023.035.045.051.068zm-40.174-1.034c-.113.168-.223.34-.328.515a17.11 17.11 0 00-.216.368l.215-.368c.052-.087.106-.175.16-.26l.169-.255zm42.922.883l.019.037-.022-.04.003.003zm-3.075-.272c.055.067.108.136.16.204-.053-.068-.105-.137-.16-.204zm-3.83-3.05c.35.185.689.381 1.017.59l.482.322c-.316-.22-.644-.429-.983-.626l-.516-.287zm-1.073-.524l.543.254c-.18-.088-.36-.172-.544-.254l-.556-.237c.188.076.374.155.557.237zm3.413-.884l.302.197c-.12-.08-.242-.158-.363-.235l.061.038zm-9.747-.924zM80.259 52.2l.413-.038.605-.05c-.337.026-.677.055-1.018.088zm2.796-2.588c.068-.002.135-.006.202-.009l.212-.005-.413.014zm3.253-.009l.202.01-.394-.015.192.005zm-14.902 52.22c-.103-.054-.204-.11-.306-.165.102.055.203.111.306.165z" fill="currentColor"></path><path d="M66.68 16.253a14.964 14.964 0 0021.413 0 14.967 14.967 0 0021.416 0 14.967 14.967 0 0021.416 0" stroke="currentColor" stroke-width="5.13259" stroke-linejoin="bevel"></path></svg>